<svg width="140" height="72" viewBox="0 0 140 72" fill="none" xmlns="http://www.w3.org/2000/svg">
<g clip-path="url(#clip0_0_62)">
<path d="M36.77 38.72C38.47 38.72 39.99 38.43 41.33 37.85C42.67 37.27 43.79 36.51 44.69 35.57C45.61 34.63 46.31 33.58 46.79 32.42C47.27 31.24 47.51 30.05 47.51 28.85C47.51 27.31 47.26 25.9 46.76 24.62C46.26 23.34 45.56 22.25 44.66 21.35C43.76 20.43 42.69 19.72 41.45 19.22C40.23 18.7 38.89 18.44 37.43 18.44C35.85 18.44 34.41 18.69 33.11 19.19C31.81 19.69 30.69 20.39 29.75 21.29C28.83 22.19 28.11 23.27 27.59 24.53C27.07 25.77 26.81 27.14 26.81 28.64C26.81 30.2 27.04 31.61 27.5 32.87C27.98 34.11 28.65 35.17 29.51 36.05C30.39 36.91 31.44 37.57 32.66 38.03C33.9 38.49 35.27 38.72 36.77 38.72ZM42.44 41.48C43.04 40.62 43.6 39.82 44.12 39.08C44.64 38.32 45.11 37.58 45.53 36.86C44.37 38.16 42.96 39.17 41.3 39.89C39.64 40.59 37.87 40.94 35.99 40.94C34.25 40.94 32.64 40.66 31.16 40.1C29.7 39.52 28.43 38.7 27.35 37.64C26.27 36.58 25.43 35.31 24.83 33.83C24.23 32.33 23.93 30.66 23.93 28.82C23.93 27 24.27 25.32 24.95 23.78C25.63 22.22 26.57 20.87 27.77 19.73C28.97 18.59 30.39 17.7 32.03 17.06C33.69 16.4 35.5 16.07 37.46 16.07C39.34 16.07 41.06 16.39 42.62 17.03C44.2 17.67 45.55 18.58 46.67 19.76C47.81 20.92 48.69 22.32 49.31 23.96C49.95 25.58 50.27 27.39 50.27 29.39C50.27 30.49 50.15 31.54 49.91 32.54C49.69 33.54 49.35 34.54 48.89 35.54C48.45 36.54 47.91 37.57 47.27 38.63C46.63 39.67 45.9 40.79 45.08 41.99L33.95 58.31C33.65 58.77 33.16 59 32.48 59H29.87L42.44 41.48ZM71.5597 38.72C73.2597 38.72 74.7797 38.43 76.1197 37.85C77.4597 37.27 78.5797 36.51 79.4797 35.57C80.3997 34.63 81.0997 33.58 81.5797 32.42C82.0597 31.24 82.2997 30.05 82.2997 28.85C82.2997 27.31 82.0497 25.9 81.5497 24.62C81.0497 23.34 80.3497 22.25 79.4497 21.35C78.5497 20.43 77.4797 19.72 76.2397 19.22C75.0197 18.7 73.6797 18.44 72.2197 18.44C70.6397 18.44 69.1997 18.69 67.8997 19.19C66.5997 19.69 65.4797 20.39 64.5397 21.29C63.6197 22.19 62.8997 23.27 62.3797 24.53C61.8597 25.77 61.5997 27.14 61.5997 28.64C61.5997 30.2 61.8297 31.61 62.2897 32.87C62.7697 34.11 63.4397 35.17 64.2997 36.05C65.1797 36.91 66.2297 37.57 67.4497 38.03C68.6897 38.49 70.0597 38.72 71.5597 38.72ZM77.2297 41.48C77.8297 40.62 78.3897 39.82 78.9097 39.08C79.4297 38.32 79.8997 37.58 80.3197 36.86C79.1597 38.16 77.7497 39.17 76.0897 39.89C74.4297 40.59 72.6597 40.94 70.7797 40.94C69.0397 40.94 67.4297 40.66 65.9497 40.1C64.4897 39.52 63.2197 38.7 62.1397 37.64C61.0597 36.58 60.2197 35.31 59.6197 33.83C59.0197 32.33 58.7197 30.66 58.7197 28.82C58.7197 27 59.0597 25.32 59.7397 23.78C60.4197 22.22 61.3597 20.87 62.5597 19.73C63.7597 18.59 65.1797 17.7 66.8197 17.06C68.4797 16.4 70.2897 16.07 72.2497 16.07C74.1297 16.07 75.8497 16.39 77.4097 17.03C78.9897 17.67 80.3397 18.58 81.4597 19.76C82.5997 20.92 83.4797 22.32 84.0997 23.96C84.7397 25.58 85.0597 27.39 85.0597 29.39C85.0597 30.49 84.9397 31.54 84.6997 32.54C84.4797 33.54 84.1397 34.54 83.6797 35.54C83.2397 36.54 82.6997 37.57 82.0597 38.63C81.4197 39.67 80.6897 40.79 79.8697 41.99L68.7397 58.31C68.4397 58.77 67.9497 59 67.2697 59H64.6597L77.2297 41.48ZM96.5873 59.027C96.4853 59.303 96.3203 59.51 96.0923 59.648C95.8703 59.786 95.6423 59.855 95.4083 59.855H94.4633L99.7193 46.409C99.8153 46.157 99.9623 45.965 100.16 45.833C100.358 45.695 100.589 45.626 100.853 45.626H101.807L96.5873 59.027ZM115.702 49.766L110.671 61.538C110.605 61.694 110.518 61.811 110.41 61.889C110.308 61.973 110.149 62.015 109.933 62.015H108.277L110.005 58.307L106.27 49.766H108.223C108.397 49.766 108.532 49.808 108.628 49.892C108.73 49.976 108.805 50.072 108.853 50.18L110.815 54.968C110.881 55.13 110.935 55.292 110.977 55.454C111.025 55.616 111.07 55.781 111.112 55.949C111.166 55.781 111.22 55.616 111.274 55.454C111.328 55.286 111.388 55.121 111.454 54.959L113.308 50.18C113.356 50.06 113.434 49.961 113.542 49.883C113.656 49.805 113.782 49.766 113.92 49.766H115.702ZM122.459 53.321C122.459 53.033 122.417 52.763 122.333 52.511C122.255 52.253 122.135 52.028 121.973 51.836C121.811 51.644 121.604 51.494 121.352 51.386C121.106 51.272 120.818 51.215 120.488 51.215C119.846 51.215 119.339 51.398 118.967 51.764C118.601 52.13 118.367 52.649 118.265 53.321H122.459ZM118.22 54.662C118.256 55.136 118.34 55.547 118.472 55.895C118.604 56.237 118.778 56.522 118.994 56.75C119.21 56.972 119.465 57.14 119.759 57.254C120.059 57.362 120.389 57.416 120.749 57.416C121.109 57.416 121.418 57.374 121.676 57.29C121.94 57.206 122.168 57.113 122.36 57.011C122.558 56.909 122.729 56.816 122.873 56.732C123.023 56.648 123.167 56.606 123.305 56.606C123.491 56.606 123.629 56.675 123.719 56.813L124.358 57.623C124.112 57.911 123.836 58.154 123.53 58.352C123.224 58.544 122.903 58.7 122.567 58.82C122.237 58.934 121.898 59.015 121.55 59.063C121.208 59.111 120.875 59.135 120.551 59.135C119.909 59.135 119.312 59.03 118.76 58.82C118.208 58.604 117.728 58.289 117.32 57.875C116.912 57.455 116.591 56.939 116.357 56.327C116.123 55.709 116.006 54.995 116.006 54.185C116.006 53.555 116.108 52.964 116.312 52.412C116.516 51.854 116.807 51.371 117.185 50.963C117.569 50.549 118.034 50.222 118.58 49.982C119.132 49.742 119.753 49.622 120.443 49.622C121.025 49.622 121.562 49.715 122.054 49.901C122.546 50.087 122.969 50.36 123.323 50.72C123.677 51.074 123.953 51.512 124.151 52.034C124.355 52.55 124.457 53.141 124.457 53.807C124.457 54.143 124.421 54.371 124.349 54.491C124.277 54.605 124.139 54.662 123.935 54.662H118.22ZM130.988 55.058C130.346 55.088 129.806 55.145 129.368 55.229C128.93 55.307 128.579 55.409 128.315 55.535C128.051 55.661 127.862 55.808 127.748 55.976C127.634 56.144 127.577 56.327 127.577 56.525C127.577 56.915 127.691 57.194 127.919 57.362C128.153 57.53 128.456 57.614 128.828 57.614C129.284 57.614 129.677 57.533 130.007 57.371C130.343 57.203 130.67 56.951 130.988 56.615V55.058ZM125.894 51.053C126.956 50.081 128.234 49.595 129.728 49.595C130.268 49.595 130.751 49.685 131.177 49.865C131.603 50.039 131.963 50.285 132.257 50.603C132.551 50.915 132.773 51.29 132.923 51.728C133.079 52.166 133.157 52.646 133.157 53.168V59H132.149C131.939 59 131.777 58.97 131.663 58.91C131.549 58.844 131.459 58.715 131.393 58.523L131.195 57.857C130.961 58.067 130.733 58.253 130.511 58.415C130.289 58.571 130.058 58.703 129.818 58.811C129.578 58.919 129.32 59 129.044 59.054C128.774 59.114 128.474 59.144 128.144 59.144C127.754 59.144 127.394 59.093 127.064 58.991C126.734 58.883 126.449 58.724 126.209 58.514C125.969 58.304 125.783 58.043 125.651 57.731C125.519 57.419 125.453 57.056 125.453 56.642C125.453 56.408 125.492 56.177 125.57 55.949C125.648 55.715 125.774 55.493 125.948 55.283C126.128 55.073 126.359 54.875 126.641 54.689C126.923 54.503 127.268 54.341 127.676 54.203C128.09 54.065 128.57 53.954 129.116 53.87C129.662 53.78 130.286 53.726 130.988 53.708V53.168C130.988 52.55 130.856 52.094 130.592 51.8C130.328 51.5 129.947 51.35 129.449 51.35C129.089 51.35 128.789 51.392 128.549 51.476C128.315 51.56 128.108 51.656 127.928 51.764C127.748 51.866 127.583 51.959 127.433 52.043C127.289 52.127 127.127 52.169 126.947 52.169C126.791 52.169 126.659 52.13 126.551 52.052C126.443 51.968 126.356 51.872 126.29 51.764L125.894 51.053ZM137.333 51.368C137.621 50.816 137.963 50.384 138.359 50.072C138.755 49.754 139.223 49.595 139.763 49.595C140.189 49.595 140.531 49.688 140.789 49.874L140.645 51.539C140.615 51.647 140.57 51.725 140.51 51.773C140.456 51.815 140.381 51.836 140.285 51.836C140.195 51.836 140.06 51.821 139.88 51.791C139.706 51.761 139.535 51.746 139.367 51.746C139.121 51.746 138.902 51.782 138.71 51.854C138.518 51.926 138.344 52.031 138.188 52.169C138.038 52.301 137.903 52.463 137.783 52.655C137.669 52.847 137.561 53.066 137.459 53.312V59H135.236V49.766H136.541C136.769 49.766 136.928 49.808 137.018 49.892C137.108 49.97 137.168 50.114 137.198 50.324L137.333 51.368Z" fill="white"/>
<path d="M7.572 34.684C8.42 34.572 9.06 34.288 9.492 33.832C9.932 33.368 10.152 32.764 10.152 32.02C10.152 31.716 10.096 31.452 9.984 31.228C9.88 30.996 9.728 30.792 9.528 30.616C9.336 30.44 9.108 30.288 8.844 30.16C8.58 30.032 8.292 29.912 7.98 29.8L7.572 34.684ZM6.804 22C6.356 22.056 5.976 22.152 5.664 22.288C5.352 22.416 5.096 22.576 4.896 22.768C4.696 22.96 4.548 23.176 4.452 23.416C4.364 23.656 4.32 23.908 4.32 24.172C4.32 24.476 4.372 24.744 4.476 24.976C4.588 25.2 4.736 25.404 4.92 25.588C5.112 25.764 5.336 25.924 5.592 26.068C5.848 26.204 6.128 26.332 6.432 26.452L6.804 22ZM8.208 27.028C8.784 27.204 9.356 27.4 9.924 27.616C10.492 27.824 11 28.096 11.448 28.432C11.904 28.768 12.272 29.188 12.552 29.692C12.832 30.188 12.972 30.812 12.972 31.564C12.972 32.308 12.848 33.008 12.6 33.664C12.352 34.312 11.988 34.888 11.508 35.392C11.028 35.888 10.44 36.296 9.744 36.616C9.048 36.928 8.252 37.112 7.356 37.168L7.212 38.932C7.204 39.116 7.124 39.284 6.972 39.436C6.828 39.596 6.644 39.676 6.42 39.676H5.328L5.544 37.108C4.608 36.98 3.728 36.724 2.904 36.34C2.08 35.956 1.38 35.48 0.804 34.912L1.716 33.556C1.796 33.436 1.9 33.34 2.028 33.268C2.164 33.188 2.308 33.148 2.46 33.148C2.636 33.148 2.824 33.212 3.024 33.34C3.224 33.46 3.452 33.604 3.708 33.772C3.964 33.932 4.256 34.096 4.584 34.264C4.912 34.432 5.3 34.556 5.748 34.636L6.192 29.272C5.624 29.112 5.06 28.924 4.5 28.708C3.948 28.492 3.448 28.208 3 27.856C2.56 27.496 2.204 27.044 1.932 26.5C1.66 25.956 1.524 25.276 1.524 24.46C1.524 23.852 1.644 23.26 1.884 22.684C2.124 22.1 2.476 21.58 2.94 21.124C3.412 20.668 3.988 20.292 4.668 19.996C5.348 19.7 6.128 19.532 7.008 19.492L7.14 17.98C7.156 17.788 7.236 17.616 7.38 17.464C7.524 17.312 7.712 17.236 7.944 17.236H9.036L8.844 19.588C9.692 19.724 10.424 19.968 11.04 20.32C11.656 20.664 12.188 21.052 12.636 21.484L11.916 22.576C11.812 22.736 11.704 22.856 11.592 22.936C11.48 23.016 11.344 23.056 11.184 23.056C11.064 23.056 10.92 23.02 10.752 22.948C10.584 22.868 10.396 22.776 10.188 22.672C9.98 22.56 9.744 22.448 9.48 22.336C9.224 22.224 8.94 22.132 8.628 22.06L8.208 27.028Z" fill="white"/>
</g>
<defs>
<clipPath id="clip0_0_62">
<rect width="140" height="72" fill="white"/>
</clipPath>
</defs>
</svg>
